HIERARCHY
ROOT m_avg_root
{
	OFFSET 0.000000 0.000000 0.000000
	CHANNELS 6 Xposition Yposition Zposition Xrotation Yrotation Zrotation
	JOINT m_avg_Pelvis
	{
		OFFSET -0.002174 0.972724 0.028584
		CHANNELS 6 Xposition Yposition Zposition Xrotation Yrotation Zrotation
		JOINT m_avg_L_Hip
		{
			OFFSET 0.058581 -0.082280 -0.017664
			CHANNELS 6 Xposition Yposition Zposition Xrotation Yrotation Zrotation
			JOINT m_avg_L_Knee
			{
				OFFSET 0.043451 -0.386469 0.008037
				CHANNELS 6 Xposition Yposition Zposition Xrotation Yrotation Zrotation
				JOINT m_avg_L_Ankle
				{
					OFFSET -0.014790 -0.426874 -0.037428
					CHANNELS 6 Xposition Yposition Zposition Xrotation Yrotation Zrotation
					JOINT m_avg_L_Foot
					{
						OFFSET 0.041054 -0.060286 0.122042
						CHANNELS 6 Xposition Yposition Zposition Xrotation Yrotation Zrotation
						End Site
						{
							OFFSET 0.000000 0.142177 0.000000
						}
					}
				}
			}
		}
		JOINT m_avg_R_Hip
		{
			OFFSET -0.060310 -0.090513 -0.013543
			CHANNELS 6 Xposition Yposition Zposition Xrotation Yrotation Zrotation
			JOINT m_avg_R_Knee
			{
				OFFSET -0.043257 -0.383688 -0.004843
				CHANNELS 6 Xposition Yposition Zposition Xrotation Yrotation Zrotation
				JOINT m_avg_R_Ankle
				{
					OFFSET 0.019056 -0.420046 -0.034562
					CHANNELS 6 Xposition Yposition Zposition Xrotation Yrotation Zrotation
					JOINT m_avg_R_Foot
					{
						OFFSET -0.034840 -0.062106 0.130323
						CHANNELS 6 Xposition Yposition Zposition Xrotation Yrotation Zrotation
						End Site
						{
							OFFSET 0.000000 0.148510 0.000000
						}
					}
				}
			}
		}
		JOINT m_avg_Spine1
		{
			OFFSET 0.004439 0.124404 -0.038385
			CHANNELS 6 Xposition Yposition Zposition Xrotation Yrotation Zrotation
			JOINT m_avg_Spine2
			{
				OFFSET 0.004488 0.137956 0.026820
				CHANNELS 6 Xposition Yposition Zposition Xrotation Yrotation Zrotation
				JOINT m_avg_Spine3
				{
					OFFSET -0.002265 0.056032 0.002855
					CHANNELS 6 Xposition Yposition Zposition Xrotation Yrotation Zrotation
					JOINT m_avg_Neck
					{
						OFFSET -0.013390 0.211635 -0.033468
						CHANNELS 6 Xposition Yposition Zposition Xrotation Yrotation Zrotation
						JOINT m_avg_Head
						{
							OFFSET 0.010113 0.088937 0.050410
							CHANNELS 6 Xposition Yposition Zposition Xrotation Yrotation Zrotation
							End Site
							{
								OFFSET 0.000000 0.102729 0.000000
							}
						}
					}
					JOINT m_avg_L_Collar
					{
						OFFSET 0.071702 0.114000 -0.018898
						CHANNELS 6 Xposition Yposition Zposition Xrotation Yrotation Zrotation
						JOINT m_avg_L_Shoulder
						{
							OFFSET 0.122921 0.045205 -0.019046
							CHANNELS 6 Xposition Yposition Zposition Xrotation Yrotation Zrotation
							JOINT m_avg_L_Elbow
							{
								OFFSET 0.255332 -0.015649 -0.022946
								CHANNELS 6 Xposition Yposition Zposition Xrotation Yrotation Zrotation
								JOINT m_avg_L_Wrist
								{
									OFFSET 0.265709 0.012698 -0.007375
									CHANNELS 6 Xposition Yposition Zposition Xrotation Yrotation Zrotation
									JOINT m_avg_L_Hand
									{
										OFFSET 0.086691 -0.010636 -0.015594
										CHANNELS 6 Xposition Yposition Zposition Xrotation Yrotation Zrotation
										End Site
										{
											OFFSET 0.000000 0.088722 0.000000
										}
									}
								}
							}
						}
					}
					JOINT m_avg_R_Collar
					{
						OFFSET -0.082954 0.112472 -0.023707
						CHANNELS 6 Xposition Yposition Zposition Xrotation Yrotation Zrotation
						JOINT m_avg_R_Shoulder
						{
							OFFSET -0.113228 0.046853 -0.008472
							CHANNELS 6 Xposition Yposition Zposition Xrotation Yrotation Zrotation
							JOINT m_avg_R_Elbow
							{
								OFFSET -0.260127 -0.014369 -0.031269
								CHANNELS 6 Xposition Yposition Zposition Xrotation Yrotation Zrotation
								JOINT m_avg_R_Wrist
								{
									OFFSET -0.269108 0.006794 -0.006027
									CHANNELS 6 Xposition Yposition Zposition Xrotation Yrotation Zrotation
									JOINT m_avg_R_Hand
									{
										OFFSET -0.088754 -0.008652 -0.010107
										CHANNELS 6 Xposition Yposition Zposition Xrotation Yrotation Zrotation
										End Site
										{
											OFFSET 0.000000 0.089745 0.000000
										}
									}
								}
							}
						}
					}
				}
			}
		}
	}
}
MOTION
Frames: 4
Frame Time: 0.041667
0.146471 -0.088007 2.692612 -0.000000 0.000000 -0.000000 0.144297 0.884717 2.721196 189.970688 4.112199 -2.771447 0.058581 -0.082280 -0.017664 -16.583834 0.823116 26.290505 0.043452 -0.386469 0.008037 38.709769 -15.214371 -8.288860 -0.014790 -0.426875 -0.037428 -2.655602 3.340054 -16.342303 0.041054 -0.060285 0.122042 -13.157049 1.066550 20.673220 -0.060310 -0.090513 -0.013542 -16.988996 -0.288397 -18.035260 -0.043257 -0.383688 -0.004842 28.220817 13.828328 9.101911 0.019056 -0.420046 -0.034562 -5.432591 -7.188696 15.641133 -0.034840 -0.062106 0.130323 -11.451367 1.959799 -18.639692 0.004439 0.124403 -0.038384 7.109673 2.437809 2.064754 0.004488 0.137956 0.026821 -5.030364 3.678800 0.175181 -0.002265 0.056032 0.002855 -0.562575 7.768098 2.727121 -0.013390 0.211636 -0.033467 -5.693060 -14.789533 17.909241 0.010113 0.088937 0.050410 8.007021 -3.015091 5.808189 0.071703 0.114000 -0.018898 2.687834 -1.897697 -11.568439 0.122921 0.045205 -0.019046 7.458796 -9.767734 -54.391525 0.255332 -0.015649 -0.022947 9.782292 -48.447741 10.402787 0.265709 0.012698 -0.007375 -9.465427 -3.528297 2.794869 0.086691 -0.010636 -0.015594 -8.574164 -3.407221 -11.333663 -0.082953 0.112472 -0.023706 -9.555807 13.183814 -2.180008 -0.113228 0.046853 -0.008472 -29.998177 32.509091 36.855591 -0.260127 -0.014369 -0.031269 0.539821 64.369185 -30.522029 -0.269108 0.006794 -0.006026 -2.249357 5.052715 -10.209834 -0.088753 -0.008651 -0.010107 -7.005642 4.321668 12.520003 
0.133796 -0.090826 2.686043 -0.000000 0.000000 -0.000000 0.131622 0.881898 2.714627 190.982362 3.704257 -1.127525 0.058581 -0.082280 -0.017664 -11.728831 2.575671 27.262563 0.043452 -0.386470 0.008036 39.742009 -15.885490 -8.824762 -0.014790 -0.426874 -0.037428 -1.856245 1.547907 -16.620963 0.041055 -0.060286 0.122043 -13.026169 0.762478 20.141053 -0.060310 -0.090513 -0.013543 -17.196905 -0.030085 -18.914653 -0.043257 -0.383688 -0.004844 27.146056 13.641270 8.519099 0.019056 -0.420046 -0.034562 -5.922087 -7.462028 15.647639 -0.034840 -0.062106 0.130323 -11.190621 2.029364 -18.884968 0.004439 0.124404 -0.038385 6.937360 2.036514 2.234778 0.004488 0.137957 0.026820 -5.076132 3.579232 -1.189923 -0.002265 0.056033 0.002854 -0.284057 7.224470 -1.714001 -0.013390 0.211636 -0.033468 -4.711248 -14.521202 13.793731 0.010113 0.088937 0.050409 8.678085 -2.855501 3.154231 0.071702 0.114000 -0.018898 3.073843 -1.272784 -12.196589 0.122921 0.045205 -0.019047 6.817960 -9.658827 -53.644753 0.255332 -0.015649 -0.022947 11.150736 -49.788855 13.611642 0.265710 0.012698 -0.007375 -9.994308 -3.630867 2.202874 0.086690 -0.010636 -0.015594 -8.131566 -3.404070 -11.187105 -0.082954 0.112473 -0.023708 -10.071624 12.550201 -4.058753 -0.113228 0.046853 -0.008473 -27.286664 32.708997 27.505131 -0.260127 -0.014369 -0.031269 -4.231159 61.554915 -24.667588 -0.269108 0.006794 -0.006027 -1.821384 5.075660 -9.896578 -0.088754 -0.008652 -0.010107 -6.847336 4.222637 12.323999 
0.123383 -0.093244 2.679245 -0.000000 0.000000 -0.000000 0.121209 0.879480 2.707829 191.665913 2.917107 0.475411 0.058581 -0.082280 -0.017663 -7.527431 4.004872 27.407367 0.043451 -0.386469 0.008037 40.490010 -16.478113 -9.230015 -0.014790 -0.426874 -0.037428 -1.257292 0.071611 -16.781264 0.041054 -0.060287 0.122043 -12.984673 0.442634 19.644135 -0.060310 -0.090513 -0.013541 -17.671393 0.470610 -19.666893 -0.043257 -0.383688 -0.004842 26.382589 13.566631 7.670298 0.019055 -0.420046 -0.034562 -6.178012 -7.708271 15.722213 -0.034840 -0.062106 0.130323 -10.967050 2.223148 -19.160950 0.004439 0.124404 -0.038384 6.777919 1.449156 2.429938 0.004488 0.137956 0.026821 -5.084282 3.289442 -2.576916 -0.002265 0.056032 0.002856 0.406230 5.958441 -6.565931 -0.013390 0.211636 -0.033469 -4.027399 -13.135397 8.360811 0.010113 0.088937 0.050410 9.153123 -2.295539 -0.099908 0.071703 0.114000 -0.018899 3.364643 -0.562793 -12.570821 0.122921 0.045205 -0.019047 5.914030 -9.450248 -52.597863 0.255332 -0.015649 -0.022947 12.518376 -51.294263 17.049938 0.265709 0.012698 -0.007375 -10.424182 -3.770139 1.691168 0.086690 -0.010636 -0.015595 -7.622898 -3.398271 -10.999155 -0.082954 0.112473 -0.023708 -10.453040 11.396533 -5.755562 -0.113228 0.046853 -0.008472 -24.037929 30.466363 18.017025 -0.260128 -0.014369 -0.031269 -8.527357 57.604490 -19.406145 -0.269109 0.006794 -0.006027 -1.424615 5.087285 -9.437592 -0.088754 -0.008652 -0.010107 -6.659547 4.137271 12.035651 
0.117461 -0.097986 2.672297 -0.000000 0.000000 -0.000000 0.115287 0.874738 2.700881 191.592789 1.522152 1.835215 0.058581 -0.082280 -0.017664 -5.950659 4.402990 26.205155 0.043451 -0.386470 0.008037 40.680139 -16.915643 -9.545660 -0.014790 -0.426874 -0.037428 -0.862538 -1.029831 -16.820094 0.041054 -0.060286 0.122042 -13.016241 0.154606 19.225461 -0.060310 -0.090513 -0.013542 -18.115480 1.111260 -20.247298 -0.043257 -0.383688 -0.004843 26.151971 13.652554 6.652285 0.019055 -0.420045 -0.034561 -6.228547 -7.884564 15.869579 -0.034840 -0.062105 0.130323 -10.789588 2.539308 -19.447470 0.004439 0.124403 -0.038385 6.688493 0.740258 2.685504 0.004488 0.137956 0.026820 -5.031251 2.855441 -3.860543 -0.002265 0.056033 0.002855 1.460457 4.120691 -11.070521 -0.013390 0.211636 -0.033468 -3.770752 -10.965193 2.271367 0.010113 0.088937 0.050410 9.327298 -1.438753 -3.590009 0.071702 0.114000 -0.018898 3.571049 0.204444 -12.803663 0.122921 0.045205 -0.019046 4.830531 -9.302532 -51.740128 0.255332 -0.015649 -0.022946 13.815323 -52.828351 20.383815 0.265709 0.012698 -0.007374 -10.744353 -3.936994 1.292036 0.086691 -0.010636 -0.015594 -7.073001 -3.394237 -10.781944 -0.082954 0.112473 -0.023707 -10.656036 9.836621 -7.095433 -0.113228 0.046853 -0.008471 -21.137458 26.046708 10.018019 -0.260127 -0.014369 -0.031269 -12.012185 52.689462 -15.008948 -0.269108 0.006794 -0.006027 -1.080785 5.087160 -8.863700 -0.088754 -0.008652 -0.010107 -6.456711 4.072539 11.681767 
